<svg width="346" height="70" viewBox="0 0 346 70" fill="none" xmlns="http://www.w3.org/2000/svg">
<path d="M119.099 50.468C116.742 50.468 114.627 50.052 112.755 49.22C110.883 48.3533 109.393 47.192 108.283 45.736C107.209 44.28 106.619 42.668 106.515 40.9H113.847C113.986 42.0093 114.523 42.928 115.459 43.656C116.43 44.384 117.626 44.748 119.047 44.748C120.434 44.748 121.509 44.4707 122.271 43.916C123.069 43.3613 123.467 42.6507 123.467 41.784C123.467 40.848 122.982 40.1547 122.011 39.704C121.075 39.2187 119.567 38.6987 117.487 38.144C115.338 37.624 113.57 37.0867 112.183 36.532C110.831 35.9773 109.653 35.128 108.647 33.984C107.677 32.84 107.191 31.2973 107.191 29.356C107.191 27.7613 107.642 26.3053 108.543 24.988C109.479 23.6707 110.797 22.6307 112.495 21.868C114.229 21.1053 116.257 20.724 118.579 20.724C122.011 20.724 124.75 21.5907 126.795 23.324C128.841 25.0227 129.967 27.328 130.175 30.24H123.207C123.103 29.096 122.618 28.1947 121.751 27.536C120.919 26.8427 119.793 26.496 118.371 26.496C117.054 26.496 116.031 26.7387 115.303 27.224C114.61 27.7093 114.263 28.3853 114.263 29.252C114.263 30.2227 114.749 30.968 115.719 31.488C116.69 31.9733 118.198 32.476 120.243 32.996C122.323 33.516 124.039 34.0533 125.391 34.608C126.743 35.1627 127.905 36.0293 128.875 37.208C129.881 38.352 130.401 39.8773 130.435 41.784C130.435 43.448 129.967 44.9387 129.031 46.256C128.13 47.5733 126.813 48.6133 125.079 49.376C123.381 50.104 121.387 50.468 119.099 50.468ZM160.747 21.192V50H153.415V46.36C152.479 47.608 151.249 48.596 149.723 49.324C148.233 50.0173 146.603 50.364 144.835 50.364C142.582 50.364 140.589 49.896 138.855 48.96C137.122 47.9893 135.753 46.5853 134.747 44.748C133.777 42.876 133.291 40.6573 133.291 38.092V21.192H140.571V37.052C140.571 39.34 141.143 41.108 142.287 42.356C143.431 43.5693 144.991 44.176 146.967 44.176C148.978 44.176 150.555 43.5693 151.699 42.356C152.843 41.108 153.415 39.34 153.415 37.052V21.192H160.747ZM169.75 25.352C170.686 24.0347 171.969 22.9427 173.598 22.076C175.262 21.1747 177.151 20.724 179.266 20.724C181.727 20.724 183.946 21.3307 185.922 22.544C187.933 23.7573 189.51 25.4907 190.654 27.744C191.833 29.9627 192.422 32.5453 192.422 35.492C192.422 38.4387 191.833 41.056 190.654 43.344C189.51 45.5973 187.933 47.348 185.922 48.596C183.946 49.844 181.727 50.468 179.266 50.468C177.151 50.468 175.279 50.0347 173.65 49.168C172.055 48.3013 170.755 47.2093 169.75 45.892V63.728H162.47V21.192H169.75V25.352ZM184.986 35.492C184.986 33.7587 184.622 32.268 183.894 31.02C183.201 29.7373 182.265 28.7667 181.086 28.108C179.942 27.4493 178.694 27.12 177.342 27.12C176.025 27.12 174.777 27.4667 173.598 28.16C172.454 28.8187 171.518 29.7893 170.79 31.072C170.097 32.3547 169.75 33.8627 169.75 35.596C169.75 37.3293 170.097 38.8373 170.79 40.12C171.518 41.4027 172.454 42.3907 173.598 43.084C174.777 43.7427 176.025 44.072 177.342 44.072C178.694 44.072 179.942 43.7253 181.086 43.032C182.265 42.3387 183.201 41.3507 183.894 40.068C184.622 38.7853 184.986 37.26 184.986 35.492ZM219.032 34.972C219.032 36.012 218.963 36.948 218.824 37.78H197.764C197.938 39.86 198.666 41.4893 199.948 42.668C201.231 43.8467 202.808 44.436 204.68 44.436C207.384 44.436 209.308 43.2747 210.452 40.952H218.304C217.472 43.7253 215.878 46.0133 213.52 47.816C211.163 49.584 208.268 50.468 204.836 50.468C202.063 50.468 199.567 49.8613 197.348 48.648C195.164 47.4 193.448 45.6493 192.2 43.396C190.987 41.1427 190.38 38.5427 190.38 35.596C190.38 32.6147 190.987 29.9973 192.2 27.744C193.414 25.4907 195.112 23.7573 197.296 22.544C199.48 21.3307 201.994 20.724 204.836 20.724C207.575 20.724 210.019 21.3133 212.168 22.492C214.352 23.6707 216.034 25.352 217.212 27.536C218.426 29.6853 219.032 32.164 219.032 34.972ZM211.492 32.892C211.458 31.02 210.782 29.5293 209.464 28.42C208.147 27.276 206.535 26.704 204.628 26.704C202.826 26.704 201.3 27.2587 200.052 28.368C198.839 29.4427 198.094 30.9507 197.816 32.892H211.492ZM228.766 25.664C229.702 24.1387 230.915 22.9427 232.406 22.076C233.931 21.2093 235.665 20.776 237.606 20.776V28.42H235.682C233.394 28.42 231.661 28.9573 230.482 30.032C229.338 31.1067 228.766 32.9787 228.766 35.648V50H221.486V21.192H228.766V25.664ZM251.661 43.292L258.941 21.192H266.689L256.029 50H247.189L236.581 21.192H244.381L251.661 43.292ZM271.61 17.76C270.328 17.76 269.253 17.3613 268.386 16.564C267.554 15.732 267.138 14.7093 267.138 13.496C267.138 12.2827 267.554 11.2773 268.386 10.48C269.253 9.648 270.328 9.232 271.61 9.232C272.893 9.232 273.95 9.648 274.782 10.48C275.649 11.2773 276.082 12.2827 276.082 13.496C276.082 14.7093 275.649 15.732 274.782 16.564C273.95 17.3613 272.893 17.76 271.61 17.76ZM275.198 21.192V50H267.918V21.192H275.198ZM290.555 50.468C288.198 50.468 286.083 50.052 284.211 49.22C282.339 48.3533 280.848 47.192 279.739 45.736C278.664 44.28 278.075 42.668 277.971 40.9H285.303C285.442 42.0093 285.979 42.928 286.915 43.656C287.886 44.384 289.082 44.748 290.503 44.748C291.89 44.748 292.964 44.4707 293.727 43.916C294.524 43.3613 294.923 42.6507 294.923 41.784C294.923 40.848 294.438 40.1547 293.467 39.704C292.531 39.2187 291.023 38.6987 288.943 38.144C286.794 37.624 285.026 37.0867 283.639 36.532C282.287 35.9773 281.108 35.128 280.103 33.984C279.132 32.84 278.647 31.2973 278.647 29.356C278.647 27.7613 279.098 26.3053 279.999 24.988C280.935 23.6707 282.252 22.6307 283.951 21.868C285.684 21.1053 287.712 20.724 290.035 20.724C293.467 20.724 296.206 21.5907 298.251 23.324C300.296 25.0227 301.423 27.328 301.631 30.24H294.663C294.559 29.096 294.074 28.1947 293.207 27.536C292.375 26.8427 291.248 26.496 289.827 26.496C288.51 26.496 287.487 26.7387 286.759 27.224C286.066 27.7093 285.719 28.3853 285.719 29.252C285.719 30.2227 286.204 30.968 287.175 31.488C288.146 31.9733 289.654 32.476 291.699 32.996C293.779 33.516 295.495 34.0533 296.847 34.608C298.199 35.1627 299.36 36.0293 300.331 37.208C301.336 38.352 301.856 39.8773 301.891 41.784C301.891 43.448 301.423 44.9387 300.487 46.256C299.586 47.5733 298.268 48.6133 296.535 49.376C294.836 50.104 292.843 50.468 290.555 50.468ZM331.787 34.972C331.787 36.012 331.718 36.948 331.579 37.78H310.519C310.692 39.86 311.42 41.4893 312.703 42.668C313.986 43.8467 315.563 44.436 317.435 44.436C320.139 44.436 322.063 43.2747 323.207 40.952H331.059C330.227 43.7253 328.632 46.0133 326.275 47.816C323.918 49.584 321.023 50.468 317.591 50.468C314.818 50.468 312.322 49.8613 310.103 48.648C307.919 47.4 306.203 45.6493 304.955 43.396C303.742 41.1427 303.135 38.5427 303.135 35.596C303.135 32.6147 303.742 29.9973 304.955 27.744C306.168 25.4907 307.867 23.7573 310.051 22.544C312.235 21.3307 314.748 20.724 317.591 20.724C320.33 20.724 322.774 21.3133 324.923 22.492C327.107 23.6707 328.788 25.352 329.967 27.536C331.18 29.6853 331.787 32.164 331.787 34.972ZM324.247 32.892C324.212 31.02 323.536 29.5293 322.219 28.42C320.902 27.276 319.29 26.704 317.383 26.704C315.58 26.704 314.055 27.2587 312.807 28.368C311.594 29.4427 310.848 30.9507 310.571 32.892H324.247Z" fill="#192D56"/>
<path d="M37 35C17.67 35 6.0995e-06 35 6.0995e-06 35C6.94444e-06 54.33 15.67 70 35 70C54.33 70 70 54.33 70 35C70 35 56.33 35 37 35Z" fill="#192D56"/>
<path d="M37 35C17.67 35 6.0995e-06 35 6.0995e-06 35C6.94444e-06 15.67 15.67 -2.37484e-06 35 -1.5299e-06C54.33 -6.84959e-07 70 15.67 70 35C70 35 56.33 35 37 35Z" fill="#F43B68"/>
<path d="M34.6111 13.6111C46.4239 13.6111 56 23.1872 56 34.9999C56 34.9999 46.4239 34.9999 34.6111 34.9999C22.7984 34.9999 13 34.9999 13 34.9999C13 23.1872 22.7984 13.6111 34.6111 13.6111Z" fill="#192D56"/>
<path d="M34.3889 56.3889C22.5762 56.3889 13 46.8128 13 35C13 35 22.5762 35 34.3889 35C46.2017 35 55.7778 35 55.7778 35C55.7778 46.8128 46.2017 56.3889 34.3889 56.3889Z" fill="#F43B68"/>
</svg>
