<svg width="396" height="118" viewBox="0 0 396 118" fill="none" xmlns="http://www.w3.org/2000/svg">
<path d="M153.024 62.576C150.368 62.576 147.792 62.224 145.296 61.52C142.832 60.784 140.848 59.84 139.344 58.688L141.984 52.832C143.424 53.888 145.136 54.736 147.12 55.376C149.104 56.016 151.088 56.336 153.072 56.336C155.28 56.336 156.912 56.016 157.968 55.376C159.024 54.704 159.552 53.824 159.552 52.736C159.552 51.936 159.232 51.28 158.592 50.768C157.984 50.224 157.184 49.792 156.192 49.472C155.232 49.152 153.92 48.8 152.256 48.416C149.696 47.808 147.6 47.2 145.968 46.592C144.336 45.984 142.928 45.008 141.744 43.664C140.592 42.32 140.016 40.528 140.016 38.288C140.016 36.336 140.544 34.576 141.6 33.008C142.656 31.408 144.24 30.144 146.352 29.216C148.496 28.288 151.104 27.824 154.176 27.824C156.32 27.824 158.416 28.08 160.464 28.592C162.512 29.104 164.304 29.84 165.84 30.8L163.44 36.704C160.336 34.944 157.232 34.064 154.128 34.064C151.952 34.064 150.336 34.416 149.28 35.12C148.256 35.824 147.744 36.752 147.744 37.904C147.744 39.056 148.336 39.92 149.52 40.496C150.736 41.04 152.576 41.584 155.04 42.128C157.6 42.736 159.696 43.344 161.328 43.952C162.96 44.56 164.352 45.52 165.504 46.832C166.688 48.144 167.28 49.92 167.28 52.16C167.28 54.08 166.736 55.84 165.648 57.44C164.592 59.008 162.992 60.256 160.848 61.184C158.704 62.112 156.096 62.576 153.024 62.576ZM184.161 62.576C179.361 62.576 175.617 61.248 172.929 58.592C170.273 55.936 168.945 52.144 168.945 47.216V28.4H176.721V46.928C176.721 52.944 179.217 55.952 184.209 55.952C186.641 55.952 188.497 55.232 189.777 53.792C191.057 52.32 191.697 50.032 191.697 46.928V28.4H199.377V47.216C199.377 52.144 198.033 55.936 195.345 58.592C192.689 61.248 188.961 62.576 184.161 62.576ZM218.245 28.4C221.221 28.4 223.798 28.896 225.974 29.888C228.182 30.88 229.878 32.288 231.062 34.112C232.246 35.936 232.838 38.096 232.838 40.592C232.838 43.056 232.246 45.216 231.062 47.072C229.878 48.896 228.182 50.304 225.974 51.296C223.798 52.256 221.221 52.736 218.245 52.736H211.477V62H203.701V28.4H218.245ZM217.813 46.4C220.149 46.4 221.925 45.904 223.142 44.912C224.358 43.888 224.965 42.448 224.965 40.592C224.965 38.704 224.358 37.264 223.142 36.272C221.925 35.248 220.149 34.736 217.813 34.736H211.477V46.4H217.813ZM261.045 55.76V62H235.029V28.4H260.421V34.64H242.757V41.936H258.357V47.984H242.757V55.76H261.045ZM285.28 62L278.8 52.64H278.416H271.648V62H263.872V28.4H278.416C281.392 28.4 283.968 28.896 286.144 29.888C288.352 30.88 290.048 32.288 291.232 34.112C292.416 35.936 293.008 38.096 293.008 40.592C293.008 43.088 292.4 45.248 291.184 47.072C290 48.864 288.304 50.24 286.096 51.2L293.632 62H285.28ZM285.136 40.592C285.136 38.704 284.528 37.264 283.312 36.272C282.096 35.248 280.32 34.736 277.984 34.736H271.648V46.448H277.984C280.32 46.448 282.096 45.936 283.312 44.912C284.528 43.888 285.136 42.448 285.136 40.592Z" fill="#192D56"/>
<path d="M328.113 28.4L313.569 62H305.889L291.393 28.4H299.793L310.017 52.4L320.385 28.4H328.113ZM327.558 28.4H335.334V62H327.558V28.4ZM350.988 62.576C348.332 62.576 345.756 62.224 343.26 61.52C340.796 60.784 338.812 59.84 337.308 58.688L339.948 52.832C341.388 53.888 343.1 54.736 345.084 55.376C347.068 56.016 349.052 56.336 351.036 56.336C353.244 56.336 354.876 56.016 355.932 55.376C356.988 54.704 357.516 53.824 357.516 52.736C357.516 51.936 357.196 51.28 356.556 50.768C355.948 50.224 355.148 49.792 354.156 49.472C353.196 49.152 351.884 48.8 350.22 48.416C347.66 47.808 345.564 47.2 343.932 46.592C342.3 45.984 340.892 45.008 339.708 43.664C338.556 42.32 337.98 40.528 337.98 38.288C337.98 36.336 338.508 34.576 339.564 33.008C340.62 31.408 342.204 30.144 344.316 29.216C346.46 28.288 349.068 27.824 352.14 27.824C354.284 27.824 356.38 28.08 358.428 28.592C360.476 29.104 362.268 29.84 363.804 30.8L361.404 36.704C358.3 34.944 355.196 34.064 352.092 34.064C349.916 34.064 348.3 34.416 347.244 35.12C346.22 35.824 345.708 36.752 345.708 37.904C345.708 39.056 346.3 39.92 347.484 40.496C348.7 41.04 350.54 41.584 353.004 42.128C355.564 42.736 357.66 43.344 359.292 43.952C360.924 44.56 362.316 45.52 363.468 46.832C364.652 48.144 365.244 49.92 365.244 52.16C365.244 54.08 364.7 55.84 363.612 57.44C362.556 59.008 360.956 60.256 358.812 61.184C356.668 62.112 354.06 62.576 350.988 62.576ZM393.214 55.76V62H367.198V28.4H392.59V34.64H374.926V41.936H390.526V47.984H374.926V55.76H393.214Z" fill="#F5536F"/>
<path d="M55.5744 10.6819C57.1297 8.10225 60.8703 8.10225 62.4256 10.6819L106.439 83.6847C108.046 86.3507 106.126 89.75 103.013 89.75H14.9868C11.8739 89.75 9.95395 86.3507 11.5612 83.6847L55.5744 10.6819Z" fill="#192D56" fill-opacity="0.93"/>
<path d="M64.5744 5.68188C66.1297 3.10225 69.8703 3.10225 71.4256 5.68188L115.439 78.6847C117.046 81.3507 115.126 84.75 112.013 84.75H23.9868C20.8739 84.75 18.9539 81.3507 20.5612 78.6847L64.5744 5.68188Z" fill="#F32955"/>
<path d="M64.5744 5.68188C66.1297 3.10225 69.8703 3.10225 71.4256 5.68188L115.439 78.6847C117.046 81.3507 115.126 84.75 112.013 84.75H23.9868C20.8739 84.75 18.9539 81.3507 20.5612 78.6847L64.5744 5.68188Z" fill="url(#paint0_linear)"/>
<path d="M69.2139 65.1501C68.4367 66.4425 66.5633 66.4425 65.7861 65.1501L58.4974 53.0308C57.6957 51.6978 58.6558 50 60.2113 50L74.7887 50C76.3442 50 77.3043 51.6978 76.5026 53.0308L69.2139 65.1501Z" fill="#192D56"/>
<defs>
<linearGradient id="paint0_linear" x1="-22.5" y1="-17" x2="109.405" y2="76.9318" gradientUnits="userSpaceOnUse">
<stop offset="0.10768" stop-color="#F2960B"/>
<stop offset="1" stop-color="white" stop-opacity="0"/>
</linearGradient>
</defs>
</svg>
